<?xml version="1.0" standalone="no"?>
<!DOCTYPE svg PUBLIC "-//W3C//DTD SVG 20010904//EN"
 "http://www.w3.org/TR/2001/REC-SVG-20010904/DTD/svg10.dtd">
<svg version="1.0" xmlns="http://www.w3.org/2000/svg"
 width="1000.000000pt" height="1000.000000pt" viewBox="0 0 1000.000000 1000.000000"
 preserveAspectRatio="xMidYMid meet">
<metadata>
Created by potrace 1.14, written by Peter Selinger 2001-2017
</metadata>
<g transform="translate(0.000000,1000.000000) scale(0.100000,-0.100000)"
fill="#000000" stroke="none">
<path d="M0 5000 l0 -5000 5000 0 5000 0 0 5000 0 5000 -5000 0 -5000 0 0
-5000z m2640 4600 c633 -40 1107 -216 1421 -529 153 -152 243 -298 310 -503
88 -270 103 -654 37 -957 -86 -402 -347 -768 -698 -982 -49 -30 -89 -56 -90
-59 0 -3 39 -23 88 -45 343 -153 617 -373 807 -650 l37 -53 -52 -48 c-29 -27
-197 -184 -374 -350 l-321 -300 -7 68 c-19 174 -75 301 -186 420 -148 156
-296 236 -561 303 -225 57 -244 58 -848 62 l-563 4 0 -915 0 -916 558 -2 557
-3 -457 -428 -457 -427 -566 0 -565 0 0 3160 0 3160 883 0 c490 0 955 -5 1047
-10z m2845 -2909 c-17 -15 -167 -155 -335 -311 -168 -156 -329 -306 -357 -334
l-53 -50 0 362 0 362 387 0 388 0 -30 -29z m2450 -367 c245 -162 433 -360 563
-592 182 -323 252 -605 253 -1007 0 -398 -72 -725 -228 -1035 -97 -193 -181
-308 -338 -465 -127 -128 -245 -218 -397 -304 -32 -18 -58 -35 -58 -37 0 -3
222 -359 494 -792 894 -1425 1056 -1685 1056 -1694 0 -4 -242 -7 -537 -6
l-537 3 -668 1040 c-368 572 -695 1082 -728 1133 l-59 92 -541 0 -540 0 0
-1135 0 -1135 -465 0 -465 0 1 1568 1 1567 461 430 462 430 3 -418 2 -418 578
4 c551 3 581 4 675 26 218 49 421 155 559 293 128 127 222 296 272 489 63 245
61 440 -9 681 -87 299 -301 556 -563 677 -29 14 -51 28 -50 31 7 15 683 640
693 640 6 0 55 -29 110 -66z"/>
<path d="M1640 7791 l0 -921 474 0 c261 0 520 5 577 11 343 34 547 167 694
450 142 275 150 659 18 926 -82 168 -265 310 -499 387 -169 56 -198 58 -751
63 l-513 4 0 -920z"/>
</g>
</svg>
